<svg width="19" height="16" viewBox="0 0 19 16" fill="none" xmlns="http://www.w3.org/2000/svg">
<path d="M8.5 7.5C8.5 7.78594 8.38641 8.06016 8.18422 8.26235C7.98204 8.46454 7.70781 8.57812 7.42188 8.57812H1.3125C1.02656 8.57812 0.752338 8.46454 0.55015 8.26235C0.347963 8.06016 0.234375 7.78594 0.234375 7.5C0.234375 7.21406 0.347963 6.93984 0.55015 6.73765C0.752338 6.53546 1.02656 6.42188 1.3125 6.42188H7.42188C7.70781 6.42188 7.98204 6.53546 8.18422 6.73765C8.38641 6.93984 8.5 7.21406 8.5 7.5ZM1.3125 2.82812H13.1719C13.4578 2.82812 13.732 2.71454 13.9342 2.51235C14.1364 2.31016 14.25 2.03594 14.25 1.75C14.25 1.46406 14.1364 1.18984 13.9342 0.98765C13.732 0.785463 13.4578 0.671875 13.1719 0.671875H1.3125C1.02656 0.671875 0.752338 0.785463 0.55015 0.98765C0.347963 1.18984 0.234375 1.46406 0.234375 1.75C0.234375 2.03594 0.347963 2.31016 0.55015 2.51235C0.752338 2.71454 1.02656 2.82812 1.3125 2.82812ZM5.98438 12.1719H1.3125C1.02656 12.1719 0.752338 12.2855 0.55015 12.4877C0.347963 12.6898 0.234375 12.9641 0.234375 13.25C0.234375 13.5359 0.347963 13.8102 0.55015 14.0123C0.752338 14.2145 1.02656 14.3281 1.3125 14.3281H5.98438C6.27031 14.3281 6.54454 14.2145 6.74672 14.0123C6.94891 13.8102 7.0625 13.5359 7.0625 13.25C7.0625 12.9641 6.94891 12.6898 6.74672 12.4877C6.54454 12.2855 6.27031 12.1719 5.98438 12.1719ZM17.8878 10.331C17.7876 10.2305 17.6686 10.1507 17.5375 10.0963C17.4065 10.0419 17.266 10.0139 17.1241 10.0139C16.9822 10.0139 16.8417 10.0419 16.7107 10.0963C16.5796 10.1507 16.4606 10.2305 16.3604 10.331L14.6094 12.082V6.0625C14.6094 5.77656 14.4958 5.50234 14.2936 5.30015C14.0914 5.09796 13.8172 4.98438 13.5312 4.98438C13.2453 4.98438 12.9711 5.09796 12.7689 5.30015C12.5667 5.50234 12.4531 5.77656 12.4531 6.0625V12.082L10.7003 10.3283C10.4977 10.1257 10.223 10.012 9.9366 10.012C9.65017 10.012 9.37547 10.1257 9.17293 10.3283C8.97039 10.5308 8.85661 10.8055 8.85661 11.092C8.85661 11.3784 8.97039 11.6531 9.17293 11.8556L12.7667 15.4494C12.8668 15.5499 12.9859 15.6296 13.1169 15.684C13.248 15.7385 13.3885 15.7665 13.5304 15.7665C13.6722 15.7665 13.8127 15.7385 13.9438 15.684C14.0748 15.6296 14.1939 15.5499 14.294 15.4494L17.8878 11.8556C18.0899 11.6534 18.2035 11.3792 18.2035 11.0933C18.2035 10.8074 18.0899 10.5332 17.8878 10.331Z" fill="black"/>
</svg>
